<svg xmlns="http://www.w3.org/2000/svg" xmlns:xlink="http://www.w3.org/1999/xlink" width="400" zoomAndPan="magnify" viewBox="0 0 300 299.999988" height="400" preserveAspectRatio="xMidYMid meet" version="1.0"><defs><g/><clipPath id="46c8bac59c"><path d="M 90.292969 43.425781 L 209.542969 43.425781 L 209.542969 221.175781 L 90.292969 221.175781 Z M 90.292969 43.425781 " clip-rule="nonzero"/></clipPath></defs><rect x="-30" width="360" fill="#ffffff" y="-29.999999" height="359.999986" fill-opacity="1"/><rect x="-30" width="360" fill="#4ed813" y="-29.999999" height="359.999986" fill-opacity="1"/><g clip-path="url(#46c8bac59c)"><path fill="#231f20" d="M 197.988281 215.035156 L 101.988281 215.035156 C 98.960938 215.035156 96.5 212.574219 96.5 209.546875 L 96.5 206.582031 L 203.476562 206.582031 L 203.476562 209.546875 C 203.476562 212.574219 201.011719 215.035156 197.988281 215.035156 Z M 203.476562 200.371094 L 96.5 200.371094 L 96.5 64.367188 L 203.476562 64.367188 Z M 101.988281 49.707031 L 197.988281 49.707031 C 201.011719 49.707031 203.476562 52.167969 203.476562 55.195312 L 203.476562 58.160156 L 96.5 58.160156 L 96.5 55.195312 C 96.5 52.167969 98.960938 49.707031 101.988281 49.707031 Z M 197.988281 43.5 L 101.988281 43.5 C 95.539062 43.5 90.292969 48.746094 90.292969 55.195312 L 90.292969 209.546875 C 90.292969 215.996094 95.539062 221.242188 101.988281 221.242188 L 197.988281 221.242188 C 204.4375 221.242188 209.683594 215.996094 209.683594 209.546875 L 209.683594 55.195312 C 209.683594 48.746094 204.4375 43.5 197.988281 43.5 " fill-opacity="1" fill-rule="nonzero"/></g><path fill="#231f20" d="M 108.980469 81.742188 L 190.996094 81.742188 L 190.996094 96.914062 L 108.980469 96.914062 Z M 105.875 103.121094 L 194.097656 103.121094 C 195.8125 103.121094 197.203125 101.730469 197.203125 100.015625 L 197.203125 78.636719 C 197.203125 76.921875 195.8125 75.535156 194.097656 75.535156 L 105.875 75.535156 C 104.164062 75.535156 102.773438 76.921875 102.773438 78.636719 L 102.773438 100.015625 C 102.773438 101.730469 104.164062 103.121094 105.875 103.121094 " fill-opacity="1" fill-rule="nonzero"/><path fill="#231f20" d="M 108.980469 119.195312 C 108.980469 117.796875 110.117188 116.660156 111.515625 116.660156 L 123.035156 116.660156 C 124.4375 116.660156 125.574219 117.796875 125.574219 119.195312 L 125.574219 125.574219 C 125.574219 126.972656 124.4375 128.113281 123.035156 128.113281 L 111.515625 128.113281 C 110.117188 128.113281 108.980469 126.972656 108.980469 125.574219 Z M 111.515625 134.320312 L 123.035156 134.320312 C 127.859375 134.320312 131.78125 130.398438 131.78125 125.574219 L 131.78125 119.195312 C 131.78125 114.375 127.859375 110.453125 123.035156 110.453125 L 111.515625 110.453125 C 106.695312 110.453125 102.773438 114.375 102.773438 119.195312 L 102.773438 125.574219 C 102.773438 130.398438 106.695312 134.320312 111.515625 134.320312 " fill-opacity="1" fill-rule="nonzero"/><path fill="#231f20" d="M 157.007812 125.574219 C 157.007812 126.972656 155.871094 128.113281 154.472656 128.113281 L 145.5 128.113281 C 144.101562 128.113281 142.964844 126.972656 142.964844 125.574219 L 142.964844 119.195312 C 142.964844 117.796875 144.101562 116.660156 145.5 116.660156 L 154.472656 116.660156 C 155.871094 116.660156 157.007812 117.796875 157.007812 119.195312 Z M 154.472656 110.453125 L 145.5 110.453125 C 140.679688 110.453125 136.757812 114.375 136.757812 119.195312 L 136.757812 125.574219 C 136.757812 130.398438 140.679688 134.320312 145.5 134.320312 L 154.472656 134.320312 C 159.292969 134.320312 163.214844 130.398438 163.214844 125.574219 L 163.214844 119.195312 C 163.214844 114.375 159.292969 110.453125 154.472656 110.453125 " fill-opacity="1" fill-rule="nonzero"/><path fill="#231f20" d="M 190.996094 125.574219 C 190.996094 126.972656 189.855469 128.113281 188.460938 128.113281 L 176.9375 128.113281 C 175.539062 128.113281 174.402344 126.972656 174.402344 125.574219 L 174.402344 119.195312 C 174.402344 117.796875 175.539062 116.660156 176.9375 116.660156 L 188.460938 116.660156 C 189.855469 116.660156 190.996094 117.796875 190.996094 119.195312 Z M 188.460938 110.453125 L 176.9375 110.453125 C 172.117188 110.453125 168.195312 114.375 168.195312 119.195312 L 168.195312 125.574219 C 168.195312 130.398438 172.117188 134.320312 176.9375 134.320312 L 188.460938 134.320312 C 193.28125 134.320312 197.203125 130.398438 197.203125 125.574219 L 197.203125 119.195312 C 197.203125 114.375 193.28125 110.453125 188.460938 110.453125 " fill-opacity="1" fill-rule="nonzero"/><path fill="#231f20" d="M 108.980469 146.640625 C 108.980469 145.242188 110.117188 144.105469 111.515625 144.105469 L 123.035156 144.105469 C 124.4375 144.105469 125.574219 145.242188 125.574219 146.640625 L 125.574219 153.019531 C 125.574219 154.417969 124.4375 155.554688 123.035156 155.554688 L 111.515625 155.554688 C 110.117188 155.554688 108.980469 154.417969 108.980469 153.019531 Z M 111.515625 161.761719 L 123.035156 161.761719 C 127.859375 161.761719 131.78125 157.839844 131.78125 153.019531 L 131.78125 146.640625 C 131.78125 141.820312 127.859375 137.898438 123.035156 137.898438 L 111.515625 137.898438 C 106.695312 137.898438 102.773438 141.820312 102.773438 146.640625 L 102.773438 153.019531 C 102.773438 157.839844 106.695312 161.761719 111.515625 161.761719 " fill-opacity="1" fill-rule="nonzero"/><path fill="#231f20" d="M 157.007812 153.019531 C 157.007812 154.417969 155.871094 155.554688 154.472656 155.554688 L 145.5 155.554688 C 144.101562 155.554688 142.964844 154.417969 142.964844 153.019531 L 142.964844 146.640625 C 142.964844 145.242188 144.101562 144.105469 145.5 144.105469 L 154.472656 144.105469 C 155.871094 144.105469 157.007812 145.242188 157.007812 146.640625 Z M 154.472656 137.898438 L 145.5 137.898438 C 140.679688 137.898438 136.757812 141.820312 136.757812 146.640625 L 136.757812 153.019531 C 136.757812 157.839844 140.679688 161.761719 145.5 161.761719 L 154.472656 161.761719 C 159.292969 161.761719 163.214844 157.839844 163.214844 153.019531 L 163.214844 146.640625 C 163.214844 141.820312 159.292969 137.898438 154.472656 137.898438 " fill-opacity="1" fill-rule="nonzero"/><path fill="#231f20" d="M 108.980469 174.085938 C 108.980469 172.6875 110.117188 171.546875 111.515625 171.546875 L 123.035156 171.546875 C 124.4375 171.546875 125.574219 172.6875 125.574219 174.085938 L 125.574219 180.464844 C 125.574219 181.859375 124.4375 183 123.035156 183 L 111.515625 183 C 110.117188 183 108.980469 181.859375 108.980469 180.464844 Z M 111.515625 189.207031 L 123.035156 189.207031 C 127.859375 189.207031 131.78125 185.285156 131.78125 180.464844 L 131.78125 174.085938 C 131.78125 169.261719 127.859375 165.339844 123.035156 165.339844 L 111.515625 165.339844 C 106.695312 165.339844 102.773438 169.261719 102.773438 174.085938 L 102.773438 180.464844 C 102.773438 185.285156 106.695312 189.207031 111.515625 189.207031 " fill-opacity="1" fill-rule="nonzero"/><path fill="#231f20" d="M 157.007812 180.464844 C 157.007812 181.859375 155.871094 183 154.472656 183 L 145.5 183 C 144.101562 183 142.964844 181.859375 142.964844 180.464844 L 142.964844 174.085938 C 142.964844 172.6875 144.101562 171.546875 145.5 171.546875 L 154.472656 171.546875 C 155.871094 171.546875 157.007812 172.6875 157.007812 174.085938 Z M 154.472656 165.339844 L 145.5 165.339844 C 140.679688 165.339844 136.757812 169.261719 136.757812 174.085938 L 136.757812 180.464844 C 136.757812 185.285156 140.679688 189.207031 145.5 189.207031 L 154.472656 189.207031 C 159.292969 189.207031 163.214844 185.285156 163.214844 180.464844 L 163.214844 174.085938 C 163.214844 169.261719 159.292969 165.339844 154.472656 165.339844 " fill-opacity="1" fill-rule="nonzero"/><path fill="#231f20" d="M 177.296875 149.148438 L 193.34375 149.148438 C 195.058594 149.148438 196.449219 147.757812 196.449219 146.042969 C 196.449219 144.332031 195.058594 142.941406 193.34375 142.941406 L 185.800781 142.941406 L 185.800781 141 C 185.800781 139.285156 184.410156 137.898438 182.699219 137.898438 C 180.984375 137.898438 179.59375 139.285156 179.59375 141 L 179.59375 142.941406 L 177.296875 142.941406 C 172.695312 142.941406 168.949219 146.6875 168.949219 151.289062 L 168.949219 158.308594 C 168.949219 162.910156 172.695312 166.65625 177.296875 166.65625 L 188.101562 166.65625 C 189.28125 166.65625 190.242188 167.617188 190.242188 168.796875 L 190.242188 175.816406 C 190.242188 176.996094 189.28125 177.957031 188.101562 177.957031 L 172.050781 177.957031 C 170.339844 177.957031 168.949219 179.347656 168.949219 181.058594 C 168.949219 182.773438 170.339844 184.164062 172.050781 184.164062 L 179.59375 184.164062 L 179.59375 186.105469 C 179.59375 187.816406 180.984375 189.207031 182.699219 189.207031 C 184.410156 189.207031 185.800781 187.816406 185.800781 186.105469 L 185.800781 184.164062 L 188.101562 184.164062 C 192.703125 184.164062 196.449219 180.417969 196.449219 175.816406 L 196.449219 168.796875 C 196.449219 164.191406 192.703125 160.449219 188.101562 160.449219 L 177.296875 160.449219 C 176.117188 160.449219 175.15625 159.488281 175.15625 158.308594 L 175.15625 151.289062 C 175.15625 150.109375 176.117188 149.148438 177.296875 149.148438 " fill-opacity="1" fill-rule="nonzero"/><g fill="#231f20" fill-opacity="1"><g transform="translate(2.906256, 247.573631)"><g><path d="M 5.09375 0 C 4.113281 0 3.316406 -0.296875 2.703125 -0.890625 C 2.097656 -1.492188 1.796875 -2.25 1.796875 -3.15625 L 1.796875 -17.84375 C 1.796875 -18.75 2.097656 -19.5 2.703125 -20.09375 C 3.316406 -20.695312 4.113281 -21 5.09375 -21 C 6.070312 -21 6.867188 -20.695312 7.484375 -20.09375 C 8.097656 -19.5 8.40625 -18.75 8.40625 -17.84375 L 8.40625 -6.296875 L 11.09375 -6.296875 L 11.09375 -6.453125 C 11.09375 -7.347656 11.398438 -8.09375 12.015625 -8.6875 C 12.628906 -9.289062 13.425781 -9.59375 14.40625 -9.59375 C 15.382812 -9.59375 16.175781 -9.289062 16.78125 -8.6875 C 17.394531 -8.09375 17.703125 -7.347656 17.703125 -6.453125 L 17.703125 -3.15625 C 17.703125 -2.25 17.394531 -1.492188 16.78125 -0.890625 C 16.175781 -0.296875 15.382812 0 14.40625 0 Z M 5.09375 0 "/></g></g></g><g fill="#231f20" fill-opacity="1"><g transform="translate(21.199143, 247.573631)"><g><path d="M 12 0.59375 C 10.414062 0.59375 8.945312 0.3125 7.59375 -0.25 C 6.25 -0.820312 5.082031 -1.601562 4.09375 -2.59375 C 3.101562 -3.582031 2.320312 -4.75 1.75 -6.09375 C 1.1875 -7.445312 0.90625 -8.914062 0.90625 -10.5 C 0.90625 -12.082031 1.1875 -13.546875 1.75 -14.890625 C 2.320312 -16.242188 3.101562 -17.414062 4.09375 -18.40625 C 5.082031 -19.394531 6.25 -20.171875 7.59375 -20.734375 C 8.945312 -21.304688 10.414062 -21.59375 12 -21.59375 C 13.582031 -21.59375 15.046875 -21.304688 16.390625 -20.734375 C 17.742188 -20.171875 18.914062 -19.394531 19.90625 -18.40625 C 20.894531 -17.414062 21.671875 -16.242188 22.234375 -14.890625 C 22.804688 -13.546875 23.09375 -12.082031 23.09375 -10.5 C 23.09375 -8.914062 22.804688 -7.445312 22.234375 -6.09375 C 21.671875 -4.75 20.894531 -3.582031 19.90625 -2.59375 C 18.914062 -1.601562 17.742188 -0.820312 16.390625 -0.25 C 15.046875 0.3125 13.582031 0.59375 12 0.59375 Z M 12 -5.40625 C 12.601562 -5.40625 13.171875 -5.53125 13.703125 -5.78125 C 14.242188 -6.03125 14.722656 -6.378906 15.140625 -6.828125 C 15.566406 -7.273438 15.898438 -7.804688 16.140625 -8.421875 C 16.378906 -9.046875 16.5 -9.738281 16.5 -10.5 C 16.5 -11.238281 16.378906 -11.921875 16.140625 -12.546875 C 15.898438 -13.179688 15.566406 -13.722656 15.140625 -14.171875 C 14.722656 -14.617188 14.242188 -14.96875 13.703125 -15.21875 C 13.171875 -15.46875 12.601562 -15.59375 12 -15.59375 C 11.394531 -15.59375 10.820312 -15.46875 10.28125 -15.21875 C 9.75 -14.96875 9.269531 -14.617188 8.84375 -14.171875 C 8.425781 -13.722656 8.097656 -13.179688 7.859375 -12.546875 C 7.617188 -11.921875 7.5 -11.238281 7.5 -10.5 C 7.5 -9.738281 7.617188 -9.046875 7.859375 -8.421875 C 8.097656 -7.804688 8.425781 -7.273438 8.84375 -6.828125 C 9.269531 -6.378906 9.75 -6.03125 10.28125 -5.78125 C 10.820312 -5.53125 11.394531 -5.40625 12 -5.40625 Z M 12 -5.40625 "/></g></g></g><g fill="#231f20" fill-opacity="1"><g transform="translate(45.189825, 247.573631)"><g><path d="M 3.75 0 C 2.6875 0 1.84375 -0.296875 1.21875 -0.890625 C 0.601562 -1.492188 0.296875 -2.25 0.296875 -3.15625 C 0.296875 -3.332031 0.316406 -3.523438 0.359375 -3.734375 C 0.398438 -3.941406 0.453125 -4.132812 0.515625 -4.3125 C 0.585938 -4.539062 0.664062 -4.753906 0.75 -4.953125 L 6.296875 -18.90625 C 6.492188 -19.34375 6.765625 -19.738281 7.109375 -20.09375 C 7.390625 -20.394531 7.769531 -20.671875 8.25 -20.921875 C 8.726562 -21.171875 9.328125 -21.296875 10.046875 -21.296875 C 10.742188 -21.296875 11.335938 -21.171875 11.828125 -20.921875 C 12.316406 -20.671875 12.703125 -20.394531 12.984375 -20.09375 C 13.328125 -19.738281 13.597656 -19.34375 13.796875 -18.90625 L 19.34375 -4.953125 L 19.5625 -4.3125 C 19.625 -4.132812 19.675781 -3.941406 19.71875 -3.734375 C 19.769531 -3.523438 19.796875 -3.332031 19.796875 -3.15625 C 19.796875 -2.25 19.484375 -1.492188 18.859375 -0.890625 C 18.242188 -0.296875 17.40625 0 16.34375 0 C 15.75 0 15.242188 -0.125 14.828125 -0.375 C 14.421875 -0.625 14.097656 -0.898438 13.859375 -1.203125 C 13.578125 -1.554688 13.359375 -1.957031 13.203125 -2.40625 L 12.90625 -3.296875 L 7.203125 -3.296875 L 6.90625 -2.40625 C 6.71875 -1.957031 6.484375 -1.554688 6.203125 -1.203125 C 5.960938 -0.898438 5.644531 -0.625 5.25 -0.375 C 4.851562 -0.125 4.351562 0 3.75 0 Z M 11.40625 -8.09375 L 10.203125 -11.703125 L 9.90625 -11.703125 L 8.703125 -8.09375 Z M 11.40625 -8.09375 "/></g></g></g><g fill="#231f20" fill-opacity="1"><g transform="translate(65.282021, 247.573631)"><g><path d="M 5.09375 0 C 4.113281 0 3.316406 -0.296875 2.703125 -0.890625 C 2.097656 -1.492188 1.796875 -2.25 1.796875 -3.15625 L 1.796875 -17.84375 C 1.796875 -18.75 2.097656 -19.5 2.703125 -20.09375 C 3.316406 -20.695312 4.113281 -21 5.09375 -21 C 6.070312 -21 6.914062 -20.695312 7.625 -20.09375 C 8.34375 -19.5 9 -18.75 9.59375 -17.84375 L 13.796875 -11.546875 L 14.09375 -11.546875 L 14.09375 -17.84375 C 14.09375 -18.75 14.398438 -19.5 15.015625 -20.09375 C 15.628906 -20.695312 16.425781 -21 17.40625 -21 C 18.382812 -21 19.175781 -20.695312 19.78125 -20.09375 C 20.394531 -19.5 20.703125 -18.75 20.703125 -17.84375 L 20.703125 -3.15625 C 20.703125 -2.25 20.394531 -1.492188 19.78125 -0.890625 C 19.175781 -0.296875 18.382812 0 17.40625 0 C 16.425781 0 15.578125 -0.296875 14.859375 -0.890625 C 14.148438 -1.492188 13.5 -2.25 12.90625 -3.15625 L 8.703125 -9.453125 L 8.40625 -9.453125 L 8.40625 -3.15625 C 8.40625 -2.25 8.097656 -1.492188 7.484375 -0.890625 C 6.867188 -0.296875 6.070312 0 5.09375 0 Z M 5.09375 0 "/></g></g></g><g fill="#231f20" fill-opacity="1"><g transform="translate(87.773276, 247.573631)"><g/></g></g><g fill="#231f20" fill-opacity="1"><g transform="translate(93.770941, 247.573631)"><g><path d="M 12 0.59375 C 10.414062 0.59375 8.945312 0.3125 7.59375 -0.25 C 6.25 -0.820312 5.082031 -1.601562 4.09375 -2.59375 C 3.101562 -3.582031 2.320312 -4.75 1.75 -6.09375 C 1.1875 -7.445312 0.90625 -8.914062 0.90625 -10.5 C 0.90625 -12.082031 1.1875 -13.546875 1.75 -14.890625 C 2.320312 -16.242188 3.101562 -17.414062 4.09375 -18.40625 C 5.082031 -19.394531 6.25 -20.171875 7.59375 -20.734375 C 8.945312 -21.304688 10.414062 -21.59375 12 -21.59375 C 13.375 -21.59375 14.632812 -21.390625 15.78125 -20.984375 C 16.9375 -20.578125 17.921875 -20.066406 18.734375 -19.453125 C 19.546875 -18.847656 20.175781 -18.191406 20.625 -17.484375 C 21.070312 -16.785156 21.296875 -16.15625 21.296875 -15.59375 C 21.296875 -15.132812 21.207031 -14.703125 21.03125 -14.296875 C 20.851562 -13.898438 20.613281 -13.550781 20.3125 -13.25 C 20.007812 -12.957031 19.65625 -12.722656 19.25 -12.546875 C 18.851562 -12.378906 18.4375 -12.296875 18 -12.296875 C 17.320312 -12.296875 16.789062 -12.441406 16.40625 -12.734375 C 16.03125 -13.023438 15.757812 -13.28125 15.59375 -13.5 C 15.4375 -13.71875 15.25 -13.953125 15.03125 -14.203125 C 14.8125 -14.453125 14.550781 -14.679688 14.25 -14.890625 C 13.945312 -15.097656 13.601562 -15.265625 13.21875 -15.390625 C 12.84375 -15.523438 12.4375 -15.59375 12 -15.59375 C 11.394531 -15.59375 10.820312 -15.46875 10.28125 -15.21875 C 9.75 -14.96875 9.269531 -14.617188 8.84375 -14.171875 C 8.425781 -13.722656 8.097656 -13.179688 7.859375 -12.546875 C 7.617188 -11.921875 7.5 -11.238281 7.5 -10.5 C 7.5 -9.738281 7.617188 -9.046875 7.859375 -8.421875 C 8.097656 -7.804688 8.425781 -7.273438 8.84375 -6.828125 C 9.269531 -6.378906 9.75 -6.03125 10.28125 -5.78125 C 10.820312 -5.53125 11.394531 -5.40625 12 -5.40625 C 12.4375 -5.40625 12.84375 -5.46875 13.21875 -5.59375 C 13.601562 -5.726562 13.945312 -5.898438 14.25 -6.109375 C 14.550781 -6.316406 14.8125 -6.546875 15.03125 -6.796875 C 15.25 -7.046875 15.4375 -7.28125 15.59375 -7.5 C 15.757812 -7.71875 16.03125 -7.972656 16.40625 -8.265625 C 16.789062 -8.554688 17.320312 -8.703125 18 -8.703125 C 18.4375 -8.703125 18.851562 -8.609375 19.25 -8.421875 C 19.65625 -8.242188 20.007812 -8.003906 20.3125 -7.703125 C 20.613281 -7.410156 20.851562 -7.0625 21.03125 -6.65625 C 21.207031 -6.257812 21.296875 -5.84375 21.296875 -5.40625 C 21.296875 -4.84375 21.070312 -4.207031 20.625 -3.5 C 20.175781 -2.800781 19.546875 -2.144531 18.734375 -1.53125 C 17.921875 -0.925781 16.9375 -0.421875 15.78125 -0.015625 C 14.632812 0.390625 13.375 0.59375 12 0.59375 Z M 12 0.59375 "/></g></g></g><g fill="#231f20" fill-opacity="1"><g transform="translate(115.662434, 247.573631)"><g><path d="M 3.75 0 C 2.6875 0 1.84375 -0.296875 1.21875 -0.890625 C 0.601562 -1.492188 0.296875 -2.25 0.296875 -3.15625 C 0.296875 -3.332031 0.316406 -3.523438 0.359375 -3.734375 C 0.398438 -3.941406 0.453125 -4.132812 0.515625 -4.3125 C 0.585938 -4.539062 0.664062 -4.753906 0.75 -4.953125 L 6.296875 -18.90625 C 6.492188 -19.34375 6.765625 -19.738281 7.109375 -20.09375 C 7.390625 -20.394531 7.769531 -20.671875 8.25 -20.921875 C 8.726562 -21.171875 9.328125 -21.296875 10.046875 -21.296875 C 10.742188 -21.296875 11.335938 -21.171875 11.828125 -20.921875 C 12.316406 -20.671875 12.703125 -20.394531 12.984375 -20.09375 C 13.328125 -19.738281 13.597656 -19.34375 13.796875 -18.90625 L 19.34375 -4.953125 L 19.5625 -4.3125 C 19.625 -4.132812 19.675781 -3.941406 19.71875 -3.734375 C 19.769531 -3.523438 19.796875 -3.332031 19.796875 -3.15625 C 19.796875 -2.25 19.484375 -1.492188 18.859375 -0.890625 C 18.242188 -0.296875 17.40625 0 16.34375 0 C 15.75 0 15.242188 -0.125 14.828125 -0.375 C 14.421875 -0.625 14.097656 -0.898438 13.859375 -1.203125 C 13.578125 -1.554688 13.359375 -1.957031 13.203125 -2.40625 L 12.90625 -3.296875 L 7.203125 -3.296875 L 6.90625 -2.40625 C 6.71875 -1.957031 6.484375 -1.554688 6.203125 -1.203125 C 5.960938 -0.898438 5.644531 -0.625 5.25 -0.375 C 4.851562 -0.125 4.351562 0 3.75 0 Z M 11.40625 -8.09375 L 10.203125 -11.703125 L 9.90625 -11.703125 L 8.703125 -8.09375 Z M 11.40625 -8.09375 "/></g></g></g><g fill="#231f20" fill-opacity="1"><g transform="translate(135.75463, 247.573631)"><g><path d="M 5.09375 0 C 4.113281 0 3.316406 -0.296875 2.703125 -0.890625 C 2.097656 -1.492188 1.796875 -2.25 1.796875 -3.15625 L 1.796875 -17.84375 C 1.796875 -18.75 2.097656 -19.5 2.703125 -20.09375 C 3.316406 -20.695312 4.113281 -21 5.09375 -21 C 6.070312 -21 6.867188 -20.695312 7.484375 -20.09375 C 8.097656 -19.5 8.40625 -18.75 8.40625 -17.84375 L 8.40625 -6.296875 L 11.09375 -6.296875 L 11.09375 -6.453125 C 11.09375 -7.347656 11.398438 -8.09375 12.015625 -8.6875 C 12.628906 -9.289062 13.425781 -9.59375 14.40625 -9.59375 C 15.382812 -9.59375 16.175781 -9.289062 16.78125 -8.6875 C 17.394531 -8.09375 17.703125 -7.347656 17.703125 -6.453125 L 17.703125 -3.15625 C 17.703125 -2.25 17.394531 -1.492188 16.78125 -0.890625 C 16.175781 -0.296875 15.382812 0 14.40625 0 Z M 5.09375 0 "/></g></g></g><g fill="#231f20" fill-opacity="1"><g transform="translate(154.047517, 247.573631)"><g><path d="M 12 0.59375 C 10.414062 0.59375 8.945312 0.3125 7.59375 -0.25 C 6.25 -0.820312 5.082031 -1.601562 4.09375 -2.59375 C 3.101562 -3.582031 2.320312 -4.75 1.75 -6.09375 C 1.1875 -7.445312 0.90625 -8.914062 0.90625 -10.5 C 0.90625 -12.082031 1.1875 -13.546875 1.75 -14.890625 C 2.320312 -16.242188 3.101562 -17.414062 4.09375 -18.40625 C 5.082031 -19.394531 6.25 -20.171875 7.59375 -20.734375 C 8.945312 -21.304688 10.414062 -21.59375 12 -21.59375 C 13.375 -21.59375 14.632812 -21.390625 15.78125 -20.984375 C 16.9375 -20.578125 17.921875 -20.066406 18.734375 -19.453125 C 19.546875 -18.847656 20.175781 -18.191406 20.625 -17.484375 C 21.070312 -16.785156 21.296875 -16.15625 21.296875 -15.59375 C 21.296875 -15.132812 21.207031 -14.703125 21.03125 -14.296875 C 20.851562 -13.898438 20.613281 -13.550781 20.3125 -13.25 C 20.007812 -12.957031 19.65625 -12.722656 19.25 -12.546875 C 18.851562 -12.378906 18.4375 -12.296875 18 -12.296875 C 17.320312 -12.296875 16.789062 -12.441406 16.40625 -12.734375 C 16.03125 -13.023438 15.757812 -13.28125 15.59375 -13.5 C 15.4375 -13.71875 15.25 -13.953125 15.03125 -14.203125 C 14.8125 -14.453125 14.550781 -14.679688 14.25 -14.890625 C 13.945312 -15.097656 13.601562 -15.265625 13.21875 -15.390625 C 12.84375 -15.523438 12.4375 -15.59375 12 -15.59375 C 11.394531 -15.59375 10.820312 -15.46875 10.28125 -15.21875 C 9.75 -14.96875 9.269531 -14.617188 8.84375 -14.171875 C 8.425781 -13.722656 8.097656 -13.179688 7.859375 -12.546875 C 7.617188 -11.921875 7.5 -11.238281 7.5 -10.5 C 7.5 -9.738281 7.617188 -9.046875 7.859375 -8.421875 C 8.097656 -7.804688 8.425781 -7.273438 8.84375 -6.828125 C 9.269531 -6.378906 9.75 -6.03125 10.28125 -5.78125 C 10.820312 -5.53125 11.394531 -5.40625 12 -5.40625 C 12.4375 -5.40625 12.84375 -5.46875 13.21875 -5.59375 C 13.601562 -5.726562 13.945312 -5.898438 14.25 -6.109375 C 14.550781 -6.316406 14.8125 -6.546875 15.03125 -6.796875 C 15.25 -7.046875 15.4375 -7.28125 15.59375 -7.5 C 15.757812 -7.71875 16.03125 -7.972656 16.40625 -8.265625 C 16.789062 -8.554688 17.320312 -8.703125 18 -8.703125 C 18.4375 -8.703125 18.851562 -8.609375 19.25 -8.421875 C 19.65625 -8.242188 20.007812 -8.003906 20.3125 -7.703125 C 20.613281 -7.410156 20.851562 -7.0625 21.03125 -6.65625 C 21.207031 -6.257812 21.296875 -5.84375 21.296875 -5.40625 C 21.296875 -4.84375 21.070312 -4.207031 20.625 -3.5 C 20.175781 -2.800781 19.546875 -2.144531 18.734375 -1.53125 C 17.921875 -0.925781 16.9375 -0.421875 15.78125 -0.015625 C 14.632812 0.390625 13.375 0.59375 12 0.59375 Z M 12 0.59375 "/></g></g></g><g fill="#231f20" fill-opacity="1"><g transform="translate(175.93901, 247.573631)"><g><path d="M 10.5 0.59375 C 9.125 0.59375 7.878906 0.390625 6.765625 -0.015625 C 5.648438 -0.421875 4.703125 -1 3.921875 -1.75 C 3.148438 -2.5 2.550781 -3.398438 2.125 -4.453125 C 1.707031 -5.503906 1.5 -6.671875 1.5 -7.953125 L 1.5 -17.84375 C 1.5 -18.75 1.800781 -19.5 2.40625 -20.09375 C 3.019531 -20.695312 3.816406 -21 4.796875 -21 C 5.773438 -21 6.566406 -20.695312 7.171875 -20.09375 C 7.785156 -19.5 8.09375 -18.75 8.09375 -17.84375 L 8.09375 -7.953125 C 8.09375 -7.273438 8.300781 -6.726562 8.71875 -6.3125 C 9.144531 -5.90625 9.738281 -5.703125 10.5 -5.703125 C 11.257812 -5.703125 11.847656 -5.90625 12.265625 -6.3125 C 12.691406 -6.726562 12.90625 -7.273438 12.90625 -7.953125 L 12.90625 -17.84375 C 12.90625 -18.75 13.207031 -19.5 13.8125 -20.09375 C 14.425781 -20.695312 15.222656 -21 16.203125 -21 C 17.179688 -21 17.972656 -20.695312 18.578125 -20.09375 C 19.191406 -19.5 19.5 -18.75 19.5 -17.84375 L 19.5 -7.953125 C 19.5 -6.671875 19.285156 -5.503906 18.859375 -4.453125 C 18.441406 -3.398438 17.84375 -2.5 17.0625 -1.75 C 16.289062 -1 15.347656 -0.421875 14.234375 -0.015625 C 13.117188 0.390625 11.875 0.59375 10.5 0.59375 Z M 10.5 0.59375 "/></g></g></g><g fill="#231f20" fill-opacity="1"><g transform="translate(196.930837, 247.573631)"><g><path d="M 5.09375 0 C 4.113281 0 3.316406 -0.296875 2.703125 -0.890625 C 2.097656 -1.492188 1.796875 -2.25 1.796875 -3.15625 L 1.796875 -17.84375 C 1.796875 -18.75 2.097656 -19.5 2.703125 -20.09375 C 3.316406 -20.695312 4.113281 -21 5.09375 -21 C 6.070312 -21 6.867188 -20.695312 7.484375 -20.09375 C 8.097656 -19.5 8.40625 -18.75 8.40625 -17.84375 L 8.40625 -6.296875 L 11.09375 -6.296875 L 11.09375 -6.453125 C 11.09375 -7.347656 11.398438 -8.09375 12.015625 -8.6875 C 12.628906 -9.289062 13.425781 -9.59375 14.40625 -9.59375 C 15.382812 -9.59375 16.175781 -9.289062 16.78125 -8.6875 C 17.394531 -8.09375 17.703125 -7.347656 17.703125 -6.453125 L 17.703125 -3.15625 C 17.703125 -2.25 17.394531 -1.492188 16.78125 -0.890625 C 16.175781 -0.296875 15.382812 0 14.40625 0 Z M 5.09375 0 "/></g></g></g><g fill="#231f20" fill-opacity="1"><g transform="translate(215.223713, 247.573631)"><g><path d="M 3.75 0 C 2.6875 0 1.84375 -0.296875 1.21875 -0.890625 C 0.601562 -1.492188 0.296875 -2.25 0.296875 -3.15625 C 0.296875 -3.332031 0.316406 -3.523438 0.359375 -3.734375 C 0.398438 -3.941406 0.453125 -4.132812 0.515625 -4.3125 C 0.585938 -4.539062 0.664062 -4.753906 0.75 -4.953125 L 6.296875 -18.90625 C 6.492188 -19.34375 6.765625 -19.738281 7.109375 -20.09375 C 7.390625 -20.394531 7.769531 -20.671875 8.25 -20.921875 C 8.726562 -21.171875 9.328125 -21.296875 10.046875 -21.296875 C 10.742188 -21.296875 11.335938 -21.171875 11.828125 -20.921875 C 12.316406 -20.671875 12.703125 -20.394531 12.984375 -20.09375 C 13.328125 -19.738281 13.597656 -19.34375 13.796875 -18.90625 L 19.34375 -4.953125 L 19.5625 -4.3125 C 19.625 -4.132812 19.675781 -3.941406 19.71875 -3.734375 C 19.769531 -3.523438 19.796875 -3.332031 19.796875 -3.15625 C 19.796875 -2.25 19.484375 -1.492188 18.859375 -0.890625 C 18.242188 -0.296875 17.40625 0 16.34375 0 C 15.75 0 15.242188 -0.125 14.828125 -0.375 C 14.421875 -0.625 14.097656 -0.898438 13.859375 -1.203125 C 13.578125 -1.554688 13.359375 -1.957031 13.203125 -2.40625 L 12.90625 -3.296875 L 7.203125 -3.296875 L 6.90625 -2.40625 C 6.71875 -1.957031 6.484375 -1.554688 6.203125 -1.203125 C 5.960938 -0.898438 5.644531 -0.625 5.25 -0.375 C 4.851562 -0.125 4.351562 0 3.75 0 Z M 11.40625 -8.09375 L 10.203125 -11.703125 L 9.90625 -11.703125 L 8.703125 -8.09375 Z M 11.40625 -8.09375 "/></g></g></g><g fill="#231f20" fill-opacity="1"><g transform="translate(235.31592, 247.573631)"><g><path d="M 8.703125 0 C 7.722656 0 6.925781 -0.296875 6.3125 -0.890625 C 5.707031 -1.492188 5.40625 -2.25 5.40625 -3.15625 L 5.40625 -14.703125 L 3.296875 -14.703125 C 2.316406 -14.703125 1.519531 -15 0.90625 -15.59375 C 0.300781 -16.195312 0 -16.945312 0 -17.84375 C 0 -18.75 0.300781 -19.5 0.90625 -20.09375 C 1.519531 -20.695312 2.316406 -21 3.296875 -21 L 14.09375 -21 C 15.070312 -21 15.867188 -20.695312 16.484375 -20.09375 C 17.097656 -19.5 17.40625 -18.75 17.40625 -17.84375 C 17.40625 -16.945312 17.097656 -16.195312 16.484375 -15.59375 C 15.867188 -15 15.070312 -14.703125 14.09375 -14.703125 L 12 -14.703125 L 12 -3.15625 C 12 -2.25 11.691406 -1.492188 11.078125 -0.890625 C 10.472656 -0.296875 9.679688 0 8.703125 0 Z M 8.703125 0 "/></g></g></g><g fill="#231f20" fill-opacity="1"><g transform="translate(252.709153, 247.573631)"><g><path d="M 12 0.59375 C 10.414062 0.59375 8.945312 0.3125 7.59375 -0.25 C 6.25 -0.820312 5.082031 -1.601562 4.09375 -2.59375 C 3.101562 -3.582031 2.320312 -4.75 1.75 -6.09375 C 1.1875 -7.445312 0.90625 -8.914062 0.90625 -10.5 C 0.90625 -12.082031 1.1875 -13.546875 1.75 -14.890625 C 2.320312 -16.242188 3.101562 -17.414062 4.09375 -18.40625 C 5.082031 -19.394531 6.25 -20.171875 7.59375 -20.734375 C 8.945312 -21.304688 10.414062 -21.59375 12 -21.59375 C 13.582031 -21.59375 15.046875 -21.304688 16.390625 -20.734375 C 17.742188 -20.171875 18.914062 -19.394531 19.90625 -18.40625 C 20.894531 -17.414062 21.671875 -16.242188 22.234375 -14.890625 C 22.804688 -13.546875 23.09375 -12.082031 23.09375 -10.5 C 23.09375 -8.914062 22.804688 -7.445312 22.234375 -6.09375 C 21.671875 -4.75 20.894531 -3.582031 19.90625 -2.59375 C 18.914062 -1.601562 17.742188 -0.820312 16.390625 -0.25 C 15.046875 0.3125 13.582031 0.59375 12 0.59375 Z M 12 -5.40625 C 12.601562 -5.40625 13.171875 -5.53125 13.703125 -5.78125 C 14.242188 -6.03125 14.722656 -6.378906 15.140625 -6.828125 C 15.566406 -7.273438 15.898438 -7.804688 16.140625 -8.421875 C 16.378906 -9.046875 16.5 -9.738281 16.5 -10.5 C 16.5 -11.238281 16.378906 -11.921875 16.140625 -12.546875 C 15.898438 -13.179688 15.566406 -13.722656 15.140625 -14.171875 C 14.722656 -14.617188 14.242188 -14.96875 13.703125 -15.21875 C 13.171875 -15.46875 12.601562 -15.59375 12 -15.59375 C 11.394531 -15.59375 10.820312 -15.46875 10.28125 -15.21875 C 9.75 -14.96875 9.269531 -14.617188 8.84375 -14.171875 C 8.425781 -13.722656 8.097656 -13.179688 7.859375 -12.546875 C 7.617188 -11.921875 7.5 -11.238281 7.5 -10.5 C 7.5 -9.738281 7.617188 -9.046875 7.859375 -8.421875 C 8.097656 -7.804688 8.425781 -7.273438 8.84375 -6.828125 C 9.269531 -6.378906 9.75 -6.03125 10.28125 -5.78125 C 10.820312 -5.53125 11.394531 -5.40625 12 -5.40625 Z M 12 -5.40625 "/></g></g></g><g fill="#231f20" fill-opacity="1"><g transform="translate(276.699836, 247.573631)"><g><path d="M 5.09375 0 C 4.113281 0 3.316406 -0.296875 2.703125 -0.890625 C 2.097656 -1.492188 1.796875 -2.25 1.796875 -3.15625 L 1.796875 -17.84375 C 1.796875 -18.75 2.097656 -19.5 2.703125 -20.09375 C 3.316406 -20.695312 4.113281 -21 5.09375 -21 L 10.796875 -21 C 12.078125 -21 13.21875 -20.820312 14.21875 -20.46875 C 15.21875 -20.125 16.0625 -19.632812 16.75 -19 C 17.445312 -18.375 17.976562 -17.628906 18.34375 -16.765625 C 18.71875 -15.910156 18.90625 -14.972656 18.90625 -13.953125 C 18.90625 -13.066406 18.78125 -12.3125 18.53125 -11.6875 C 18.28125 -11.070312 18.003906 -10.566406 17.703125 -10.171875 C 17.335938 -9.691406 16.9375 -9.300781 16.5 -9 L 18.453125 -5.40625 C 18.585938 -5.144531 18.707031 -4.875 18.8125 -4.59375 C 18.90625 -4.351562 18.992188 -4.09375 19.078125 -3.8125 C 19.160156 -3.53125 19.203125 -3.257812 19.203125 -3 C 19.203125 -2.15625 18.894531 -1.441406 18.28125 -0.859375 C 17.675781 -0.285156 16.882812 0 15.90625 0 C 15.40625 0 14.992188 -0.0703125 14.671875 -0.21875 C 14.347656 -0.375 14.085938 -0.550781 13.890625 -0.75 C 13.671875 -0.96875 13.488281 -1.21875 13.34375 -1.5 L 10.5 -6.90625 L 8.40625 -6.90625 L 8.40625 -3.15625 C 8.40625 -2.25 8.097656 -1.492188 7.484375 -0.890625 C 6.867188 -0.296875 6.070312 0 5.09375 0 Z M 10.796875 -12.90625 C 11.179688 -12.90625 11.476562 -13.003906 11.6875 -13.203125 C 11.894531 -13.398438 12 -13.648438 12 -13.953125 C 12 -14.253906 11.894531 -14.503906 11.6875 -14.703125 C 11.476562 -14.898438 11.179688 -15 10.796875 -15 L 8.40625 -15 L 8.40625 -12.90625 Z M 10.796875 -12.90625 "/></g></g></g></svg>